<?xml version="1.0" encoding="UTF-8" standalone="no"?>
<svg
   xmlns:dc="http://purl.org/dc/elements/1.1/"
   xmlns:cc="http://creativecommons.org/ns#"
   xmlns:rdf="http://www.w3.org/1999/02/22-rdf-syntax-ns#"
   xmlns:svg="http://www.w3.org/2000/svg"
   xmlns="http://www.w3.org/2000/svg"
   xmlns:sodipodi="http://sodipodi.sourceforge.net/DTD/sodipodi-0.dtd"
   xmlns:inkscape="http://www.inkscape.org/namespaces/inkscape"
   sodipodi:docname="elitecleaning-app-dashboard Designs.svg"
   inkscape:version="1.0 (4035a4fb49, 2020-05-01)"
   id="svg8"
   version="1.1"
   viewBox="0 0 210 297"
   height="297mm"
   width="210mm">
  <defs
     id="defs2">
    <rect
       id="rect14"
       height="28.328938"
       width="51.843352"
       y="24.491274"
       x="-231.65535" />
    <rect
       x="-231.65535"
       y="24.491274"
       width="51.843352"
       height="28.328938"
       id="rect24" />
    <rect
       id="rect32"
       height="28.328938"
       width="51.843352"
       y="24.491274"
       x="-231.65535" />
    <rect
       x="-231.65535"
       y="24.491274"
       width="51.843352"
       height="28.328938"
       id="rect40" />
    <rect
       id="rect54"
       height="82.385764"
       width="168.87359"
       y="24.491274"
       x="-231.65535" />
    <rect
       x="-231.65535"
       y="24.491274"
       width="168.87359"
       height="82.385764"
       id="rect263" />
    <rect
       x="-231.65535"
       y="24.491274"
       width="168.87359"
       height="82.385764"
       id="rect297" />
  </defs>
  <sodipodi:namedview
     inkscape:window-maximized="1"
     inkscape:window-y="-8"
     inkscape:window-x="-8"
     inkscape:window-height="705"
     inkscape:window-width="1366"
     showgrid="false"
     inkscape:document-rotation="0"
     inkscape:current-layer="layer1"
     inkscape:document-units="mm"
     inkscape:cy="691.82602"
     inkscape:cx="-1043.4327"
     inkscape:zoom="1.4640502"
     inkscape:pageshadow="2"
     inkscape:pageopacity="0.0"
     borderopacity="1.0"
     bordercolor="#666666"
     pagecolor="#ffffff"
     id="base"
     showguides="true"
     inkscape:guide-bbox="true">
    <sodipodi:guide
       position="-292.36021,97.999682"
       orientation="0,-1"
       id="guide123" />
  </sodipodi:namedview>
  <metadata
     id="metadata5">
    <rdf:RDF>
      <cc:Work
         rdf:about="">
        <dc:format>image/svg+xml</dc:format>
        <dc:type
           rdf:resource="http://purl.org/dc/dcmitype/StillImage" />
        <dc:title />
      </cc:Work>
    </rdf:RDF>
  </metadata>
  <g
     id="layer1"
     inkscape:groupmode="layer"
     inkscape:label="Layer 1">
    <circle
       r="23.623512"
       cy="34.773811"
       cx="-215.06844"
       id="path10"
       style="opacity:1;fill:#000000;stroke-width:0.865;stroke-dasharray:2.595, 2.59500000000000020" />
    <text
       transform="matrix(1.2207135,0,0,1.2207135,51.441323,-2.3429232)"
       style="font-style:normal;font-weight:normal;font-size:10.5833px;line-height:1.25;font-family:sans-serif;white-space:pre;shape-inside:url(#rect14);fill:#ffffff;fill-opacity:1;stroke:none;"
       id="text12"
       xml:space="preserve"><tspan
         x="-231.65625"
         y="33.855927"><tspan
           style="font-style:normal;font-variant:normal;font-weight:bold;font-stretch:normal;font-family:'Source Sans Pro';-inkscape-font-specification:'Source Sans Pro Bold';fill:#ffffff">LOGO</tspan></tspan></text>
    <circle
       style="opacity:1;fill:#000000;stroke-width:0.865;stroke-dasharray:2.595, 2.595"
       id="circle18"
       cx="-215.06844"
       cy="91.989891"
       r="23.623512" />
    <text
       xml:space="preserve"
       id="text22"
       style="font-style:normal;font-weight:normal;font-size:10.5833px;line-height:1.25;font-family:sans-serif;white-space:pre;shape-inside:url(#rect24);fill:#ffffff;fill-opacity:1;stroke:none;"
       transform="matrix(1.4165452,0,0,1.4165452,102.67042,48.791312)"><tspan
         x="-231.65625"
         y="33.855927"><tspan
           style="font-style:normal;font-variant:normal;font-weight:bold;font-stretch:normal;font-family:'Source Sans Pro';-inkscape-font-specification:'Source Sans Pro Bold';fill:#ffffff">1.0</tspan></tspan></text>
    <circle
       r="23.623512"
       cy="149.61771"
       cx="-215.06844"
       id="circle26"
       style="opacity:1;fill:#000000;stroke-width:0.865;stroke-dasharray:2.595, 2.595" />
    <text
       y="0"
       x="6.6099324"
       transform="matrix(1.4165452,0,0,1.4165452,76.111323,106.41913)"
       style="font-style:normal;font-weight:normal;font-size:10.5833px;line-height:1.25;font-family:sans-serif;text-align:center;white-space:pre;shape-inside:url(#rect32);fill:#ffffff;fill-opacity:1;stroke:none;"
       id="text30"
       xml:space="preserve"><tspan
         x="-212.90704"
         y="33.855927"><tspan
           style="font-style:normal;font-variant:normal;font-weight:bold;font-stretch:normal;font-family:'Source Sans Pro';-inkscape-font-specification:'Source Sans Pro Bold';text-align:center;text-anchor:middle;fill:#ffffff">2.0</tspan></tspan></text>
    <circle
       style="opacity:1;fill:#000000;stroke-width:0.865;stroke-dasharray:2.595, 2.595"
       id="circle34"
       cx="-215.06844"
       cy="222.18445"
       r="23.623512" />
    <text
       xml:space="preserve"
       id="text38"
       style="font-style:normal;font-weight:normal;font-size:10.5833px;line-height:1.25;font-family:sans-serif;text-align:center;white-space:pre;shape-inside:url(#rect40);fill:#ffffff;fill-opacity:1;stroke:none;"
       transform="matrix(1.4165452,0,0,1.4165452,76.111323,178.98587)"
       x="6.6099324"
       y="0"><tspan
         x="-212.90704"
         y="33.855927"><tspan
           style="font-style:normal;font-variant:normal;font-weight:bold;font-stretch:normal;font-family:'Source Sans Pro';-inkscape-font-specification:'Source Sans Pro Bold';text-align:center;text-anchor:middle;fill:#ffffff">3.0</tspan></tspan></text>
    <g
       id="g291">
      <rect
         style="opacity:1;fill:#2c5282;fill-opacity:1;stroke-width:0.985769;stroke-dasharray:2.95731, 2.95731000000000011"
         id="rect42"
         width="17.016766"
         height="17.016766"
         x="-290.92688"
         y="74.319481"
         ry="4.3857374" />
      <rect
         ry="4.3857374"
         y="74.319481"
         x="-271.54984"
         height="17.016766"
         width="17.016766"
         id="rect44"
         style="opacity:1;fill:#f5325b;stroke-width:0.985769;stroke-dasharray:2.95731, 2.95731000000000011;fill-opacity:1" />
      <rect
         ry="4.3857374"
         y="93.616989"
         x="-290.92688"
         height="17.016766"
         width="17.016766"
         id="rect46"
         style="opacity:1;fill:#2c5282;fill-opacity:1;stroke-width:0.985769;stroke-dasharray:2.95731, 2.95731000000000011" />
      <rect
         style="opacity:1;fill:#2c5282;fill-opacity:1;stroke-width:0.985769;stroke-dasharray:2.95731, 2.95731000000000011"
         id="rect48"
         width="17.016766"
         height="17.016766"
         x="-271.62936"
         y="93.616989"
         ry="4.3857374" />
    </g>
    <text
       transform="matrix(1.4165452,0,0,1.4165452,146.76867,48.791312)"
       style="font-style:normal;font-weight:normal;font-size:10.5833px;line-height:1.25;font-family:sans-serif;white-space:pre;shape-inside:url(#rect54);fill:#000000;fill-opacity:1;stroke:none;"
       id="text52"
       xml:space="preserve"><tspan
         x="-231.65625"
         y="33.855927"><tspan
           style="font-style:normal;font-variant:normal;font-weight:bold;font-stretch:normal;font-family:'Source Sans Pro';-inkscape-font-specification:'Source Sans Pro Bold';fill:#000000">Dashboard icon</tspan></tspan></text>
    <g
       id="g115"
       transform="translate(42.144528,87.63829)">
      <rect
         ry="0"
         y="80.360191"
         x="-411.26566"
         height="59.892246"
         width="59.892246"
         id="rect299"
         style="opacity:1;fill:#666666;fill-opacity:1;stroke-width:0.736583;stroke-dasharray:2.20975, 2.20975" />
      <g
         id="g257"
         transform="matrix(0.24544995,0,0,0.24544995,-279.10891,86.622487)">
        <rect
           ry="0"
           y="26.157499"
           x="-486.75534"
           height="70.333916"
           width="70.333916"
           id="rect245"
           style="opacity:1;fill:#2c5282;fill-opacity:1;stroke-width:0.865;stroke-dasharray:2.595, 2.59500000000000020" />
        <rect
           ry="0"
           y="26.157499"
           x="-416.42142"
           height="70.333916"
           width="70.333916"
           id="rect247"
           style="opacity:1;fill:#f5325b;fill-opacity:1;stroke-width:0.865;stroke-dasharray:2.595, 2.595" />
        <rect
           ry="0"
           y="96.491417"
           x="-486.75534"
           height="70.333916"
           width="70.333916"
           id="rect249"
           style="opacity:1;fill:#e6e7e8;fill-opacity:1;stroke-width:0.865;stroke-dasharray:2.595, 2.595" />
        <rect
           style="opacity:1;fill:#000000;fill-opacity:1;stroke-width:0.865;stroke-dasharray:2.595, 2.595"
           id="rect251"
           width="70.333916"
           height="70.333916"
           x="-416.42142"
           y="96.491417"
           ry="0" />
      </g>
    </g>
    <text
       xml:space="preserve"
       id="text261"
       style="font-style:normal;font-weight:normal;font-size:10.5833px;line-height:1.25;font-family:sans-serif;white-space:pre;shape-inside:url(#rect263);fill:#000000;fill-opacity:1;stroke:none;"
       transform="matrix(1.4165452,0,0,1.4165452,146.76867,-18.789787)"><tspan
         x="-231.65625"
         y="33.855927"><tspan
           style="font-style:normal;font-variant:normal;font-weight:bold;font-stretch:normal;font-family:'Source Sans Pro';-inkscape-font-specification:'Source Sans Pro Bold';fill:#000000">Company Logo 
</tspan></tspan><tspan
         x="-231.65625"
         y="47.188405"><tspan
           style="font-style:normal;font-variant:normal;font-weight:bold;font-stretch:normal;font-family:'Source Sans Pro';-inkscape-font-specification:'Source Sans Pro Bold';fill:#000000">[available in code]</tspan></tspan></text>
    <path
       d="m -277.18237,131.42054 v 4.98919 a 13.938199,-13.938199 0 0 0 -1.73829,0.72046 l -3.52833,-3.52832 -6.29664,6.29698 3.52798,3.52798 a 13.938199,-13.938199 0 0 0 -0.72013,1.73832 h -4.98919 v 8.90512 h 4.98886 a 13.938199,-13.938199 0 0 0 0.72046,1.7383 l -3.52798,3.52799 6.29664,6.29698 3.52833,-3.52832 a 13.938199,-13.938199 0 0 0 1.73829,0.72046 v 4.98919 h 8.90479 v -4.98919 a 13.938199,-13.938199 0 0 0 1.73831,-0.72046 l 3.52833,3.52832 6.29664,-6.29698 -3.52799,-3.52799 a 13.938199,-13.938199 0 0 0 0.72012,-1.7383 h 4.9892 v -8.90512 h -4.9892 a 13.938199,-13.938199 0 0 0 -0.72012,-1.73832 l 3.52799,-3.52798 -6.29664,-6.29698 -3.52833,3.52832 a 13.938199,-13.938199 0 0 0 -1.73831,-0.72012 v -4.98953 z m 4.45224,10.45385 a 7.7434438,-7.7434438 0 0 1 7.74365,7.74331 7.7434438,-7.7434438 0 0 1 -7.74365,7.74332 7.7434438,-7.7434438 0 0 1 -7.74333,-7.74332 7.7434438,-7.7434438 0 0 1 7.74333,-7.74331 z"
       style="opacity:1;fill:#2c5282;fill-opacity:1;stroke-width:0.565652;stroke-dasharray:1.69696, 1.69696"
       id="rect265" />
    <text
       xml:space="preserve"
       id="text295"
       style="font-style:normal;font-weight:normal;font-size:10.5833px;line-height:1.25;font-family:sans-serif;white-space:pre;shape-inside:url(#rect297);fill:#000000;fill-opacity:1;stroke:none;"
       transform="matrix(1.4165452,0,0,1.4165452,146.76867,106.98132)"><tspan
         x="-231.65625"
         y="33.855927"><tspan
           style="font-style:normal;font-variant:normal;font-weight:bold;font-stretch:normal;font-family:'Source Sans Pro';-inkscape-font-specification:'Source Sans Pro Bold';fill:#000000">Settings</tspan></tspan></text>
    <g
       transform="translate(0,-164.56102)"
       id="g972">
      <rect
         transform="scale(1,-1)"
         y="-217.53172"
         x="-293.89526"
         height="36.394001"
         width="36.394001"
         id="rect95"
         style="fill:none;stroke-width:4.53553;stroke-linecap:round;stroke-linejoin:round;paint-order:markers stroke fill" />
      <path
         sodipodi:nodetypes="cccccc"
         d="m -287.89458,181.13773 h 24.56106 l 5.83226,11.0532 -18.53144,25.3408 -17.86256,-25.47655 z"
         style="fill:#f5325b;fill-opacity:1;stroke-width:4.53553;stroke-linecap:round;stroke-linejoin:round;paint-order:markers stroke fill"
         id="rect118" />
      <path
         transform="scale(0.26458333)"
         d="m -1110.7852,725.87695 67.5118,96.29102 70.04098,-95.77735 -0.27149,-0.51367 z"
         style="fill:#2c5282;fill-opacity:1;stroke-width:17.1422;stroke-linecap:round;stroke-linejoin:round;paint-order:markers stroke fill"
         id="rect95-4" />
    </g>
    <g
       id="g98">
      <rect
         style="fill:#122134;stroke-width:4.53553;stroke-linecap:round;stroke-linejoin:round;paint-order:markers stroke fill;fill-opacity:1"
         id="rect81"
         width="36.394001"
         height="36.394001"
         x="-293.89526"
         y="-240.38135"
         transform="scale(1,-1)"
         ry="18.197001" />
      <path
         id="path60"
         style="opacity:1;fill:#ffffff;fill-opacity:1;stroke:none;stroke-width:3.41379;stroke-linecap:butt;stroke-linejoin:miter;stroke-miterlimit:4;stroke-dasharray:none;stroke-dashoffset:0;stroke-opacity:1;paint-order:stroke markers fill"
         d="M -1042.1641 796.80469 A 33.922299 33.922299 0 0 0 -1075.5547 830.71094 A 33.922299 33.922299 0 0 0 -1061.6328 858.06055 C -1061.5723 858.22949 -1061.5674 858.34961 -1061.7012 858.34961 C -1062.2493 858.34961 -1075.9649 869.49375 -1078.2344 872.87109 C -1082.8029 879.66875 -1084.6555 884.42368 -1085.4473 893.14258 C -1074.8168 901.79065 -1061.5339 907.30206 -1046.9707 908.33203 L -1044.709 883.69727 C -1044.709 883.69727 -1049.3723 879.72297 -1049.373 876.36523 C -1049.3725 872.21902 -1046.107 868.8484 -1042.0098 868.65039 C -1037.9123 868.84617 -1034.647 872.21902 -1034.6465 876.36523 C -1034.6472 879.72297 -1039.3105 883.69727 -1039.3105 883.69727 L -1037.0469 908.33203 C -1022.4842 907.3021 -1009.2026 901.79209 -998.57227 893.14453 C -999.36396 884.42438 -1001.2144 879.66926 -1005.7832 872.87109 C -1008.0527 869.49375 -1021.7683 858.34961 -1022.3164 858.34961 C -1022.4498 858.34961 -1022.4472 858.23025 -1022.3867 858.06055 A 33.922299 33.922299 0 0 0 -1008.4629 830.71094 A 33.922299 33.922299 0 0 0 -1041.8555 796.80469 A 33.922299 33.922299 0 0 0 -1042.0098 796.80469 A 33.922299 33.922299 0 0 0 -1042.1621 796.80469 L -1042.1641 796.80469 z "
         transform="scale(0.26458333)" />
    </g>
  </g>
</svg>
