<?xml version="1.0" encoding="UTF-8" standalone="no"?>
<svg
   xmlns:dc="http://purl.org/dc/elements/1.1/"
   xmlns:cc="http://creativecommons.org/ns#"
   xmlns:rdf="http://www.w3.org/1999/02/22-rdf-syntax-ns#"
   xmlns:svg="http://www.w3.org/2000/svg"
   xmlns="http://www.w3.org/2000/svg"
   xmlns:sodipodi="http://sodipodi.sourceforge.net/DTD/sodipodi-0.dtd"
   xmlns:inkscape="http://www.inkscape.org/namespaces/inkscape"
   width="40.175785mm"
   height="40.087986mm"
   viewBox="0 0 40.175785 40.087986"
   version="1.1"
   id="svg8"
   inkscape:version="1.0 (4035a4fb49, 2020-05-01)"
   sodipodi:docname="icon-user-profile.svg">
  <defs
     id="defs2" />
  <sodipodi:namedview
     id="base"
     pagecolor="#ffffff"
     bordercolor="#666666"
     borderopacity="1.0"
     inkscape:pageopacity="0.0"
     inkscape:pageshadow="2"
     inkscape:zoom="0.35"
     inkscape:cx="353.06576"
     inkscape:cy="132.89967"
     inkscape:document-units="mm"
     inkscape:current-layer="layer1"
     inkscape:document-rotation="0"
     showgrid="false"
     inkscape:window-width="1350"
     inkscape:window-height="728"
     inkscape:window-x="0"
     inkscape:window-y="0"
     inkscape:window-maximized="0" />
  <metadata
     id="metadata5">
    <rdf:RDF>
      <cc:Work
         rdf:about="">
        <dc:format>image/svg+xml</dc:format>
        <dc:type
           rdf:resource="http://purl.org/dc/dcmitype/StillImage" />
        <dc:title />
      </cc:Work>
    </rdf:RDF>
  </metadata>
  <g
     inkscape:label="Layer 1"
     inkscape:groupmode="layer"
     id="layer1"
     transform="translate(-70.626352,-113.00363)">
    <g
       transform="translate(366.41251,-89.136724)"
       id="g98">
      <rect
         ry="18.197001"
         transform="scale(1,-1)"
         y="-240.38135"
         x="-293.89526"
         height="36.394001"
         width="36.394001"
         id="rect81"
         style="fill:#122134;fill-opacity:1;stroke-width:4.53553;stroke-linecap:round;stroke-linejoin:round;paint-order:markers stroke fill" />
      <path
         transform="scale(0.26458333)"
         d="m -1042.1641,796.80469 a 33.922299,33.922299 0 0 0 -33.3906,33.90625 33.922299,33.922299 0 0 0 13.9219,27.34961 c 0.061,0.16894 0.065,0.28906 -0.068,0.28906 -0.5481,0 -14.2637,11.14414 -16.5332,14.52148 -4.5685,6.79766 -6.4211,11.55259 -7.2129,20.27149 10.6305,8.64807 23.9134,14.15948 38.4766,15.18945 l 2.2617,-24.63476 c 0,0 -4.6633,-3.9743 -4.664,-7.33204 5e-4,-4.14621 3.266,-7.51683 7.3632,-7.71484 4.0975,0.19578 7.3628,3.56863 7.3633,7.71484 -7e-4,3.35774 -4.664,7.33204 -4.664,7.33204 l 2.2636,24.63476 c 14.5627,-1.02993 27.8443,-6.53994 38.47463,-15.1875 -0.79169,-8.72015 -2.64213,-13.47527 -7.21093,-20.27344 -2.2695,-3.37734 -15.9851,-14.52148 -16.5332,-14.52148 -0.1334,0 -0.1308,-0.11936 -0.07,-0.28906 a 33.922299,33.922299 0 0 0 13.9238,-27.34961 33.922299,33.922299 0 0 0 -33.3926,-33.90625 33.922299,33.922299 0 0 0 -0.1543,0 33.922299,33.922299 0 0 0 -0.1523,0 z"
         style="opacity:1;fill:#ffffff;fill-opacity:1;stroke:none;stroke-width:3.41379;stroke-linecap:butt;stroke-linejoin:miter;stroke-miterlimit:4;stroke-dasharray:none;stroke-dashoffset:0;stroke-opacity:1;paint-order:stroke markers fill"
         id="path60" />
    </g>
  </g>
</svg>
